<svg xmlns="http://www.w3.org/2000/svg" enable-background="new 0 0 24 24" height="24px" viewBox="0 0 24 24" width="24px" fill="#1A73E8">
  <rect fill="none" height="24" width="24"/>
  <path d="M12,2C6.48,2,2,6.48,2,12c0,5.52,4.48,10,10,10s10-4.48,10-10C22,6.48,17.52,2,12,2z M12,20c-4.42,0-8-3.58-8-8 c0-1.85,0.63-3.55,1.69-4.9L16.9,18.1C15.55,19.27,13.85,20,12,20z M18.9,12c0,1.85-0.63,3.55-1.69,4.9L6.1,6.1 C7.45,4.93,9.15,4.2,12,4.2C16.42,4.2,20,7.78,20,12z" opacity=".3"/>
  <path d="M17 12c0-2.76-2.24-5-5-5s-5 2.24-5 5h-2c0-3.87 3.13-7 7-7s7 3.13 7 7h-2z" transform="rotate(0 12 12)"/>
  <circle cx="12" cy="12" r="2"/>
  <path d="M12 2C6.48 2 2 6.48 2 12s4.48 10 10 10 10-4.48 10-10S17.52 2 12 2zm0 18c-4.41 0-8-3.59-8-8s3.59-8 8-8 8 3.59 8 8-3.59 8-8 8z"/>
  <path d="M12 6c-3.31 0-6 2.69-6 6 0 1.25.38 2.4 1.03 3.35L8.5 13.8c-.31-.54-.5-1.16-.5-1.8 0-2.21 1.79-4 4-4s4 1.79 4 4c0 .64-.19 1.26-.5 1.8l1.47 1.55C17.62 14.4 18 13.25 18 12c0-3.31-2.69-6-6-6z"/>
</svg>